# xmcd
#
# Track frame offsets: 
#        150
#        14472
#        32110
#        49407
#        77552
#        95582
#        116215
#        135465
#        161980
#        182827
#        198847
#        221530
#        238080
#        253557
#
# Disc length: 3720 seconds
#
# Revision: 0
# Processed by: cddbd v1.4PL0 Copyright (c) Steve Scherf et al.
# Submitted via: ExactAudioCopy v0.95a1
#
DISCID=c60e860e
DTITLE=Ella Fitzgerald and Louis Armstrong - Ella et Louis
DYEAR=1957
DGENRE=Blues
TTITLE0=I`ve got my love to keep me warm
TTITLE1=A fine romance
TTITLE2=Can`t we be friends
TTITLE3=Isn`t this a lovely day
TTITLE4=Love is here to stay
TTITLE5=A foggy day in London Town
TTITLE6=Let`s call the whole thing off
TTITLE7=Cheek to Cheek
TTITLE8=They can`t take away from me
TTITLE9=Stars fell on Alabama
TTITLE10=Don`t be that way
TTITLE11=Moonlight in Vermont
TTITLE12=I`m puttin`all me eggs in one basket
TTITLE13=The nearness of you
EXTD=
EXTT0=
EXTT1=
EXTT2=
EXTT3=
EXTT4=
EXTT5=
EXTT6=
EXTT7=
EXTT8=
EXTT9=
EXTT10=
EXTT11=
EXTT12=
EXTT13=
PLAYORDER=
